<svg width="1190" height="1064" viewBox="0 0 1190 1064" fill="none" xmlns="http://www.w3.org/2000/svg">
<path fill-rule="evenodd" clip-rule="evenodd" d="M185.808 1000.86L188.636 1003.69L678.755 513.574C684.636 518.071 693.082 517.631 698.46 512.253C703.839 506.874 704.279 498.428 699.781 492.548L1189.19 3.13561L1186.36 0.307495L696.952 489.719C691.072 485.221 682.626 485.661 677.247 491.04C671.869 496.418 671.429 504.864 675.926 510.745L185.808 1000.86ZM3.63664 1063.69L0.808014 1060.86L778.84 282.831C773.393 276.948 773.528 267.758 779.247 262.04C784.966 256.321 794.154 256.186 800.038 261.633L1001.36 60.3075L1004.19 63.1367L802.599 264.73C806.2 270.517 805.487 278.226 800.461 283.253C795.433 288.28 787.725 288.993 781.937 285.392L3.63664 1063.69Z" fill="#80B7B3"/>
</svg>
